<svg xmlns="http://www.w3.org/2000/svg" width="512" height="128" viewBox="0 0 512 128" fill="none">
  <rect width="96" height="96" x="8" y="16" rx="24" fill="#0F172A"/>
  <path d="M32 34h48v14H46v16h28v14H46v16h38v14H32V34z" fill="#FFFFFF"/>
  <path d="M140 42.9h56.3v12.6h-41.7v15.2h37.7v12.4h-37.7v17.1h43.3V113H140V42.9zm69.7 55.4h14.2c.8 3.8 2.7 6.6 5.6 8.3 2.9 1.8 6.9 2.6 12 2.6 4.7 0 8.3-.8 10.8-2.3 2.6-1.5 3.8-3.6 3.8-6.2 0-2.2-.9-4-2.8-5.2-1.9-1.2-5.4-2.3-10.5-3.3l-10-1.9c-7.3-1.4-12.7-3.6-16-6.6-3.4-3.1-5.1-7.3-5.1-12.8 0-6.1 2.4-10.9 7.1-14.6 4.8-3.7 11.1-5.5 19.1-5.5 8.1 0 14.5 1.8 19.2 5.3 4.8 3.5 7.4 8.4 8 14.7h-13.8c-.7-3.4-2.4-5.9-5-7.4-2.6-1.5-6.1-2.3-10.4-2.3-4 0-7.2.8-9.6 2.3-2.4 1.5-3.6 3.6-3.6 6.2 0 2.1.9 3.8 2.6 5 1.8 1.3 4.8 2.3 9.1 3.2l11.5 2.3c7.8 1.5 13.4 3.8 16.8 6.8 3.4 3.1 5.1 7.2 5.1 12.4 0 6.5-2.5 11.6-7.4 15.2-5 3.7-11.8 5.5-20.5 5.5-8.6 0-15.4-1.9-20.3-5.7-4.9-3.8-7.7-8.9-8.2-15.3zm69.6-18.7c0-11.2 2.9-20 8.7-26.3 5.8-6.3 13.8-9.5 24-9.5 8.7 0 15.7 2.4 20.9 7.1 5.3 4.7 8.5 11.1 9.6 19.1h-14.4c-.8-4.3-2.6-7.7-5.4-10.2-2.8-2.4-6.4-3.7-10.8-3.7-5.9 0-10.4 2-13.6 6-3.2 4-4.8 9.8-4.8 17.3 0 7.5 1.6 13.2 4.8 17.3 3.2 4 7.7 6 13.6 6 4.4 0 8-1.1 10.8-3.4 2.8-2.3 4.6-5.4 5.4-9.5h14.4c-1.1 7.7-4.4 13.8-9.8 18.3-5.4 4.5-12.3 6.7-20.7 6.7-10.2 0-18.2-3.2-24-9.5-5.8-6.4-8.7-15.1-8.7-26.3zm75.3 0c0-11.1 3-19.9 8.9-26.2 6-6.4 13.9-9.6 23.8-9.6 10 0 17.9 3.2 23.8 9.6 6 6.4 9 15.1 9 26.2 0 11.1-3 19.8-9 26.2-5.9 6.4-13.9 9.6-23.8 9.6-9.9 0-17.8-3.2-23.8-9.6-5.9-6.4-8.9-15.1-8.9-26.2zm14.5 0c0 7.4 1.6 13.2 4.8 17.2 3.2 4.1 7.7 6.1 13.5 6.1 5.9 0 10.4-2 13.6-6.1 3.2-4 4.8-9.8 4.8-17.2 0-7.5-1.6-13.2-4.8-17.3-3.2-4-7.7-6-13.6-6-5.8 0-10.3 2-13.5 6-3.2 4.1-4.8 9.8-4.8 17.3z" fill="#0F172A"/>
  <path d="M448.3 101.5c0-6.5 5.2-11.7 11.6-11.7 6.5 0 11.8 5.2 11.8 11.7 0 6.4-5.3 11.6-11.8 11.6-6.4 0-11.6-5.2-11.6-11.6z" fill="#145C55"/>
</svg>
